<svg width="118" height="118" viewBox="0 0 118 118" fill="none" xmlns="http://www.w3.org/2000/svg">
<g clip-path="url(#clip0_259_79)">
<path d="M62.405 69.6L52.125 75.53L32.665 64.23L53.975 51.94L85.255 70.12L74.005 76.23L62.405 69.6Z" fill="#C1D9FC"/>
<path d="M85.335 94.53L64.145 106.77L64.125 91.09L74.005 84.52V76.25L85.335 70.07V94.53Z" fill="#83B3F9"/>
<path d="M64.125 106.69L32.665 88.7V64.23L52.265 75.61L52.125 84.5L64.125 91.09V106.69Z" fill="#267AF1"/>
<path d="M52.125 84.5L62.385 78.65L62.375 69.63L52.155 75.53L52.125 84.5Z" fill="#83B3F9"/>
<path d="M62.375 78.67L74.005 84.54L64.125 91.09L52.155 84.5L62.375 78.67Z" fill="#C1D9FC"/>
<path d="M62.385 69.56L74.025 76.23L73.985 84.52L62.395 78.66L62.385 69.56Z" fill="#267AF1"/>
<path d="M58.795 31.84L58.765 41.05L64.205 31.75L58.795 31.84Z" fill="#214460"/>
<path d="M66.9951 47.56C67.2251 47.56 67.4151 47.34 67.4151 47.06C67.4151 46.78 67.2251 46.56 66.9951 46.56C66.7651 46.56 66.5751 46.78 66.5751 47.06C66.5751 47.34 66.7651 47.56 66.9951 47.56Z" fill="#476175"/>
<path d="M50.6751 43.85C50.6751 44.12 50.5251 44.35 50.3951 44.35C50.2651 44.35 50.0551 44.11 50.0551 43.84C50.0551 43.57 50.2551 43.36 50.3851 43.36C50.5151 43.36 50.6751 43.58 50.6751 43.85V43.85Z" fill="#476175"/>
<path d="M63.1351 36.02C69.3251 36.02 74.3351 34.26 74.3351 32.08C74.3351 29.9 69.3251 28.14 63.1351 28.14C56.9451 28.14 51.9351 29.9 51.9351 32.08C51.9351 34.26 56.9451 36.02 63.1351 36.02V36.02Z" fill="#C0C9D0"/>
<path d="M74.3251 24.89H51.9451V31.85H74.3251V24.89Z" fill="#C0C9D0"/>
<path d="M62.665 36.48C60.655 40.45 53.595 47.79 58.735 52.77C59.385 51.26 67.085 40.19 66.055 37.67C66.055 36.77 65.465 36.54 65.465 36.54L62.665 36.49V36.48Z" fill="#8394A2"/>
<path d="M65.7651 40.63C65.7651 40.63 59.2351 51.22 57.1951 55.83C56.7251 56.9 56.9551 67.33 56.9551 67.33C65.5851 54 66.2351 57.32 65.7651 40.63Z" fill="#214460"/>
<path d="M64.655 55.62C65.515 55.57 66.065 58.79 65.965 59.44C66.735 63.99 60.235 70.09 58.715 74.2C57.465 73.29 56.085 69.45 56.975 67.39C57.455 66.32 64.655 55.62 64.655 55.62V55.62Z" fill="#8394A2"/>
<path d="M64.1051 77.12C65.8851 77.96 65.9151 81.31 65.8351 83.08C65.8351 83.08 65.5351 83.93 62.9751 84.02C62.3451 84.04 60.4451 83.72 60.4451 83.72C60.7351 83.45 63.8651 77.83 64.1251 77.12H64.1051Z" fill="#8394A2"/>
<path d="M65.8251 62.42V72.95C65.8251 74.29 63.8151 77.68 62.9651 79.31C60.3851 84.54 61.1851 84.34 58.4851 83.94C58.0451 83.88 57.3551 83.58 56.8851 83.17C56.8851 83.17 56.8351 78.38 57.1151 76.96C58.6251 73.02 64.2751 65.15 65.7251 62.19L65.8251 62.42V62.42Z" fill="#214460"/>
<path d="M76.895 38.27H47.885V50.58H76.895V38.27V38.27Z" fill="#C0C9D0"/>
<path d="M62.385 44.47C70.425 44.47 76.935 41.92 76.935 38.78C76.935 35.64 70.425 33.09 62.385 33.09C54.345 33.09 47.835 35.64 47.835 38.78C47.835 41.92 54.345 44.47 62.385 44.47V44.47Z" fill="#8394A2"/>
<path d="M62.385 56.02C70.395 56.02 76.885 53.53 76.885 50.46C76.885 47.39 70.395 44.9 62.385 44.9C54.375 44.9 47.885 47.39 47.885 50.46C47.885 53.53 54.375 56.02 62.385 56.02Z" fill="#C0C9D0"/>
<path d="M66.345 52.35V51.35C74.755 51.35 80.395 48.67 80.395 46.16C80.395 45.05 78.725 43.6 76.885 43.13L76.825 42.12C78.935 42.97 81.395 44.42 81.395 46.16C81.395 49.63 74.785 52.35 66.345 52.35V52.35Z" fill="#476175"/>
<path d="M49.745 48.15C46.675 47.16 44.875 45.71 44.875 44.31C44.875 43.31 46.225 42.21 47.875 41.34V40.49C45.635 41.37 43.895 42.91 43.895 44.31C43.895 46.32 46.175 48.07 49.745 49.16" fill="#476175"/>
<path d="M62.475 40.81C68.665 40.81 73.675 39.05 73.675 36.87C73.675 34.69 68.665 32.93 62.475 32.93C56.285 32.93 51.275 34.69 51.275 36.87C51.275 39.05 56.285 40.81 62.475 40.81Z" fill="#476175"/>
<path d="M73.665 29.68H51.285V36.64H73.665V29.68Z" fill="#476175"/>
<path d="M62.3203 36.08C70.3018 36.08 76.7656 33.43 76.7656 30.16C76.7656 26.89 70.3018 24.24 62.3203 24.24C54.3389 24.24 47.875 26.89 47.875 30.16C47.875 33.43 54.3389 36.08 62.3203 36.08V36.08Z" fill="#C0C9D0"/>
<path d="M76.75 17.1719H47.875V30.57H76.75V17.1719Z" fill="#C0C9D0"/>
<path d="M62.3125 23.1838C70.2896 23.1838 76.75 20.5338 76.75 17.2638C76.75 13.9938 70.2896 11.3438 62.3125 11.3438C54.3354 11.3438 47.875 13.9938 47.875 17.2638C47.875 20.5338 54.3354 23.1838 62.3125 23.1838Z" fill="#E5E8EB"/>
</g>
<defs>
<clipPath id="clip0_259_79">
<rect width="52" height="96" fill="white" transform="translate(33 11)"/>
</clipPath>
</defs>
</svg>
