<svg width="118" height="118" viewBox="0 0 118 118" fill="none" xmlns="http://www.w3.org/2000/svg">
<path d="M37.33 93.49L64.21 78.07L55.04 62.13L28.16 77.65L37.33 93.49V93.49Z" fill="#478EF8"/>
<path d="M55.71 89.6301L44.1 82.3901L66.61 69.8201L77.84 76.9801L55.71 89.6401V89.6301Z" fill="#86B5F8"/>
<path d="M80.89 93.05L55.8 108.54L55.67 89.72L80.96 75.23L80.89 93.05V93.05Z" fill="#4B91F5"/>
<path d="M44.7152 92.3774L29.9254 69.4545L22.094 74.5073L36.8838 97.4302L44.7152 92.3774Z" fill="#4B91F5"/>
<path d="M55.7701 108.68L20.9301 89.03V70.2L23.2401 71.69L34.1601 91.34C34.4301 91.83 35.0601 91.98 35.5301 91.67L46.6101 83.94L56.1001 89.69L55.7701 108.68V108.68Z" fill="#267AF2"/>
<path d="M46.85 55.12L56.59 60.68L31.53 77.83L20.92 70.31L46.85 55.12V55.12Z" fill="#86B5F8"/>
<path d="M48.83 44.86L47.8 42.04L32.47 47.66L33.79 50.41L48.83 44.85V44.86Z" fill="#8395A4"/>
<path d="M73.99 84.73L73.74 81.6L102.42 64.97L102.36 68.22L73.99 84.73V84.73Z" fill="#8395A4"/>
<path d="M48.71 44.91L19.73 59.49L19.58 59.2L33.46 50.47L48.71 44.91Z" fill="#22445F"/>
<path d="M40.23 49.15L56.73 73.92L35.74 87.15L19.75 59.43L40.23 49.15V49.15Z" fill="#8395A4"/>
<path d="M65.1899 68.84L73.3599 81.83L102.27 65.05L92.9499 52.96L65.1999 68.84H65.1899V68.84Z" fill="#C1CAD1"/>
<path d="M67.68 71.95C67.68 71.95 66.12 69.2 65.37 69.01C64.68 68.83 62.95 70.04 62.95 70.04L36.19 86.95C35.94 87.11 35.6 87.03 35.45 86.77L19.92 59.67C19.76 59.39 19.77 59.07 20.05 58.9L33.74 50.37L32.46 47.65L17.53 56.99C16.44 57.67 15.97 59.06 16.62 60.17L17.17 61.22L32.56 87.81L33.91 89.9C34.41 90.77 36.06 90.77 36.72 90.31L64.42 72.58C64.69 72.41 65.06 72.48 65.25 72.74L73.97 84.75L74.02 81.45L67.71 71.97L67.68 71.95Z" fill="#466176"/>
<path d="M59.44 28.11L45.59 20.33L45.61 34.97C45.61 34.97 55.39 37.26 54.49 52.74C53.59 68.22 34.03 84.35 34.03 84.35L35.3 86.57C35.55 87 35.9 87.32 36.52 86.87L59.98 71.98L59.44 28.12V28.11Z" fill="#204360"/>
<path d="M59.52 72.24L78.92 60.97L78.86 16.96L59.46 28.04L59.52 72.23V72.24Z" fill="#607789"/>
<path d="M45.61 20.33L65.54 8.88L78.87 16.94L59.45 28.09L45.62 20.33H45.61V20.33Z" fill="#8395A4"/>
</svg>
